<?xml version="1.0" encoding="UTF-8"?>
<svg id="Layer_1" xmlns="http://www.w3.org/2000/svg" version="1.1" viewBox="0 0 160 160">
  <!-- Generator: Adobe Illustrator 29.6.1, SVG Export Plug-In . SVG Version: 2.1.1 Build 9)  -->
  <defs>
    <style>
      .st0 {
        fill: #1b3f6e;
      }

      .st1 {
        fill: #e8623a;
      }
    </style>
  </defs>
  <path d="M9.8,75.9"/>
  <path class="st0" d="M48,6.9v35.3s2.3,30.2-41.2,30.3v-37.2S5.1,6.9,48,6.9Z"/>
  <path class="st0" d="M152.9,89.4v-44.4s2.3-37.9-41.1-38.2v46.7s-1.8,35.8,41.1,35.8Z"/>
  <path class="st0" d="M48,153.1v-41.2s2.3-35.2-41.2-35.4v43.4s-1.8,33.2,41.2,33.2Z"/>
  <path class="st1" d="M152.9,93.4v32.1s2.3,27.4-41.1,27.6v-33.8s-1.8-25.9,41.1-25.9Z"/>
  <path d="M53.1,106.5"/>
  <path class="st0" d="M54.9,153.6l.2-51.4s-.5-11.4,11.5-11.7c0,0,4.7-.5,8.5,3.9s21.9,23.2,21.9,23.2c0,0,7.8,7.5,7.9,18.4s0,17.6,0,17.6h-50Z"/>
  <path class="st0" d="M56.2,6.9v32.9s-1,13.2,8.9,24.8c9.9,11.7,41.1,47,41.1,47V42.1s-.3-34-29.3-35l-20.6-.2Z"/>
</svg>